Simulation
nRows=23
nColumns=15
endheader
time  TH_x TH_y TH_z SC_y  SC_z  SC_x  AC_y  AC_z  AC_x  GH_y  GH_z  GH_yy  EL_x  PS_y
1.6000000000000014  0.000000  0.000000  0.000000  -47.20360610417827  15.341096966818114  38.66661715447174  54.75434515361425  1.7641157093825204  7.89150343146188  71.94950133207074  64.40008655583  -77.81690198812014  18.271392604913512  120.000000
1.6320000000000014  0.000000  0.000000  0.000000  -47.281580207230114  15.3580637771705  41.261662124269044  54.816268925419486  -0.2858984352255862  6.511978574434258  72.01856449202064  64.06637892060635  -77.76077431235865  18.290399968676347  120.000000
1.6640000000000015  0.000000  0.000000  0.000000  -47.29715896657356  15.305864722705566  43.52609487286493  54.89138132170252  -2.227211471841167  5.1619301273378095  72.1463453520596  63.562945749560335  -77.59594998489426  18.313202505753946  120.000000
1.6960000000000015  0.000000  0.000000  0.000000  -47.24814427163493  15.18557026476478  45.42161658553243  54.975419700198245  -4.031408644124694  3.8549365706191994  72.33044416836921  62.90806256436209  -77.33828027715715  18.341842439381036  120.000000
1.7280000000000015  0.000000  0.000000  0.000000  -47.13189709016007  14.997624981637525  46.930446801874766  55.06614388856318  -5.684735405465669  2.5986940977727855  72.55571925702928  62.11758335872985  -77.00989518776613  18.376703593730358  120.000000
1.7600000000000016  0.000000  0.000000  0.000000  -46.944993068435814  14.742073073613344  48.04939299635405  55.16253008682092  -7.184892289680297  1.398530968703505  72.7951206180722  61.20566978527364  -76.6355361686754  18.416987125460864  120.000000
1.7920000000000016  0.000000  0.000000  0.000000  -46.68480135626834  14.419400133348473  48.78506136633105  55.26428640811642  -8.538043773230221  0.26029619510304886  73.01375446442289  60.186423706178324  -76.2374555921849  18.460836521004136  120.000000
1.8240000000000016  0.000000  0.000000  0.000000  -46.350593351264514  14.032108456565703  49.15034992867814  55.3701544708383  -9.755715504405599  -0.8074501284149853  73.17448186946164  59.07354397617889  -75.82871886891171  18.5057820416382  120.000000
1.8560000000000016  0.000000  0.000000  0.000000  -45.94317135890722  13.584857849881264  49.16316911639463  55.47604072801065  -10.849545185935522  -1.794005763722741  73.2443917882136  57.87821513032654  -75.40685956335727  18.54869270461578  120.000000
1.8880000000000017  0.000000  0.000000  0.000000  -45.466716556391766  13.084888297842049  48.8468931230737  55.57442838055586  -11.825938411476931  -2.686904967425666  73.20124754686269  56.60736896463804  -74.95023040251151  18.584847590024832  120.000000
1.9200000000000017  0.000000  0.000000  0.000000  -44.93135242628994  12.541917312109863  48.23087686198879  55.6553682422463  -12.681384880603078  -3.472928319067117  73.0375378993851  55.26348127290212  -74.42009591088589  18.608296854756517  120.000000
1.9520000000000017  0.000000  0.000000  0.000000  -44.35293462247458  11.966558069402717  47.34924687921395  55.709005964161754  -13.400119151639991  -4.141612626450635  72.75944489452473  53.846512037585825  -73.76869101779985  18.614251762765193  120.000000
1.9840000000000018  0.000000  0.000000  0.000000  -43.751357094764494  11.369536676853526  46.23777177506507  55.72826126375458  -13.956370603456838  -4.687750278542849  72.38239258938596  52.35692793083501  -72.95106211295513  18.600952380305888  120.000000
2.016000000000002  0.000000  0.000000  0.000000  -43.14734084344053  10.761577622407879  44.929496385912614  55.709775455135  -14.320641016831422  -5.1118017158651625  71.92559331074315  50.798249701357946  -71.93643047007988  18.571200035800803  120.000000
2.048000000000002  0.000000  0.000000  0.000000  -42.55856461308769  10.152714805654494  43.45031966974396  55.653690004561014  -14.46793239262689  -5.41882978497352  71.40737933106008  49.17852426159569  -70.71546099117411  18.53377419911351  120.000000
2.080000000000002  0.000000  0.000000  0.000000  -41.99673448126164  9.551753617336473  41.8160219479164  55.561245382744694  -14.38469817588758  -5.616499909169795  70.8432921359608  47.51018716999374  -69.30128052510814  18.504113957858937  120.000000
2.112000000000002  0.000000  0.000000  0.000000  -41.46472232734573  8.964238637921373  40.03482411200034  55.43188778142653  -14.070846595735846  -5.715474423753105  70.24432621041568  45.808079498598744  -67.72398890474761  18.502721693832317  120.000000
2.144000000000002  0.000000  0.000000  0.000000  -40.95730667981155  8.392078285525129  38.114158825761415  55.26195196156454  -13.53733420056028  -5.729578495798772  69.61659705972718  44.08741913537228  -66.02100412739865  18.550992644978  120.000000
2.176000000000002  0.000000  0.000000  0.000000  -40.46858544632171  7.839117142379726  36.06260090900971  55.04867473933723  -12.803753979176852  -5.665520911734225  68.96046998080169  42.35969743757212  -64.22700396326128  18.66801510477716  120.000000
2.208000000000002  0.000000  0.000000  0.000000  -39.99596671933562  7.312761231348503  33.888361329388985  54.79474501355812  -11.89661490488568  -5.5162062719651175  68.26811159091046  40.62882184792825  -62.36678034498108  18.86517747972178  120.000000
2.240000000000002  0.000000  0.000000  0.000000  -39.53664853684536  6.817542255726877  31.60264476144768  54.50514745010319  -10.848615765038824  -5.273550586778517  67.52382325905553  38.89380734848627  -60.45166964937659  19.14105429977811  120.000000
2.272000000000002  0.000000  0.000000  0.000000  -39.08871264203096  6.352746266135709  29.22289604466879  54.18400877590049  -9.69696318295783  -4.937678982349885  66.70602291435601  37.15257088154651  -58.4788533530205  19.48521486279465  120.000000
2.304000000000002  0.000000  0.000000  0.000000  -38.65438901071966  5.915194561839002  26.77300925590933  53.83552572180049  -8.479331246940083  -4.514710135412508  65.78873551873923  35.40403787773361  -56.43387308143395  19.883397649896292  120.000000
